<svg width="104" height="104" viewBox="0 0 104 104" fill="none" xmlns="http://www.w3.org/2000/svg">
<circle cx="52" cy="52" r="52" fill="white"/>
<path fill-rule="evenodd" clip-rule="evenodd" d="M40.5961 20C33.7961 20.4 26.0961 23.5 23.0961 25C9.49611 43 9.09612 63.8333 10.5961 72C13.3961 76.8 26.4294 81.6667 32.5961 83.5L37.0961 76L30.0961 73L31.5961 71.5C47.9961 79.9 66.7628 75 74.0961 71.5L75.5961 73L69.0961 76C70.2961 80 72.9294 82.6667 74.0961 83.5C85.6961 79.1 93.2628 74 95.5961 72C96.3961 62.8 95.2628 56.5 94.5961 54.5C93.3961 42.5 86.0961 29.8333 82.5961 25C77.7961 22.2 68.9294 20.5 65.0961 20L62.5961 24C55.7961 22.4 47.0961 23.3333 43.5961 24L40.5961 20ZM46.0961 54.5C46.0961 59.1944 42.7382 63 38.5961 63C34.4539 63 31.0961 59.1944 31.0961 54.5C31.0961 49.8056 34.4539 46 38.5961 46C42.7382 46 46.0961 49.8056 46.0961 54.5ZM67.0961 63C71.5143 63 75.0961 59.1944 75.0961 54.5C75.0961 49.8056 71.5143 46 67.0961 46C62.6778 46 59.0961 49.8056 59.0961 54.5C59.0961 59.1944 62.6778 63 67.0961 63Z" fill="#100F0F"/>
</svg>
