<svg width="101" height="100" viewBox="0 0 101 100" fill="none" xmlns="http://www.w3.org/2000/svg">
<ellipse cx="50.5" cy="50" rx="50.5" ry="50" fill="white"/>
<path fill-rule="evenodd" clip-rule="evenodd" d="M29.5 13H72C77.3333 13.5 88.2 18 89 32V72.5C88.8333 78 85.2 89.2 72 90H30.5C24.5 89.3333 12.4 84.5 12 70.5V32C12.5 25.6667 16.7 13 29.5 13ZM34.6364 22H67.7532C71.9091 22.3896 80.3766 25.8961 81 36.8052V68.3636C80.8701 72.6493 78.039 81.3766 67.7532 82H35.4156C30.7403 81.4805 21.3117 77.7143 21 66.8052V36.8052C21.3896 31.8701 24.6623 22 34.6364 22Z" fill="#1B1919"/>
<circle cx="51" cy="52" r="12" fill="#1B1919"/>
<path fill-rule="evenodd" clip-rule="evenodd" d="M64.961 27H37.3636C29.0519 27 26.3247 35.2251 26 39.3377V64.3377C26.2597 73.4286 34.1169 76.5671 38.013 77H64.961C73.5325 76.4805 75.8918 69.2078 76 65.6364V39.3377C75.4805 30.2468 68.4242 27.3247 64.961 27ZM67 51.5C67 60.6127 59.6127 68 50.5 68C41.3873 68 34 60.6127 34 51.5C34 42.3873 41.3873 35 50.5 35C59.6127 35 67 42.3873 67 51.5ZM70 38C71.6569 38 73 36.6569 73 35C73 33.3431 71.6569 32 70 32C68.3431 32 67 33.3431 67 35C67 36.6569 68.3431 38 70 38Z" fill="#1B1919"/>
</svg>
