<svg width="101" height="74" viewBox="0 0 101 74" fill="none" xmlns="http://www.w3.org/2000/svg">
<path fill-rule="evenodd" clip-rule="evenodd" d="M2 0.397461H58.341C57.653 2.00621 57.0811 3.67638 56.6356 5.39746H12.6331L47.6967 38.7382L58.7368 29.044C59.7474 31.237 60.9762 33.3088 62.3954 35.2315L49.8332 45.4594C48.386 46.8667 46.2568 46.0042 45.3732 45.3971L5 8.39733V68.0206H90.7305V49.6L90.8357 49.6002C92.4965 49.6002 94.1306 49.4855 95.7305 49.2638V71.0206C95.7305 72.1251 94.835 73.0206 93.7305 73.0206H2C0.895428 73.0206 0 72.1251 0 71.0206V2.39746C0 1.29289 0.895431 0.397461 2 0.397461ZM81.5667 14.0854V15.7616H87.1178V17.9207H89.1292V15.7616H90.6178V14.0286H89.1292V6.28429H87.9019H87.1405H86.5042L81.5667 14.0854ZM87.1405 8.67065H87.0496L83.7258 13.9377V14.0286H87.1405V8.67065ZM94.4445 17.6536C95.043 17.9377 95.721 18.0797 96.4786 18.0797C97.3006 18.0797 98.024 17.9093 98.649 17.5684C99.2778 17.2237 99.7684 16.7521 100.121 16.1536C100.477 15.5513 100.655 14.8657 100.655 14.0968C100.655 13.3506 100.496 12.6877 100.177 12.1082C99.8593 11.5286 99.4237 11.0741 98.8706 10.7445C98.3176 10.4112 97.6888 10.2445 96.9843 10.2445C96.5146 10.2445 96.0828 10.3297 95.6888 10.5002C95.2949 10.6669 94.99 10.8771 94.774 11.1309H94.7059L95.0411 8.04565H100.047V6.28429H93.2968L92.6888 12.2843L94.5922 12.5968C94.7892 12.3809 95.0562 12.2066 95.3934 12.0741C95.7305 11.9415 96.0733 11.8771 96.4218 11.8809C96.8498 11.8809 97.2286 11.9794 97.5581 12.1763C97.8877 12.3695 98.1472 12.6366 98.3365 12.9775C98.5259 13.3184 98.6187 13.7085 98.615 14.1479C98.6187 14.5797 98.5278 14.9642 98.3422 15.3013C98.1566 15.6385 97.9028 15.9017 97.5809 16.0911C97.2589 16.2805 96.8915 16.3752 96.4786 16.3752C95.9521 16.3752 95.5013 16.2256 95.1263 15.9263C94.7513 15.6233 94.5449 15.2332 94.507 14.7559H92.4615C92.4843 15.3998 92.6699 15.9718 93.0184 16.4718C93.3706 16.9718 93.846 17.3657 94.4445 17.6536Z" fill="#FEFEFE"/>
</svg>
