<svg width="112" height="85" viewBox="0 0 112 85" fill="none" xmlns="http://www.w3.org/2000/svg">
<path fill-rule="evenodd" clip-rule="evenodd" d="M16.3915 85L42.4276 71.9819H101.319C104.625 71.5686 111.238 69.0063 111.238 62.0634V8.75118C111.031 5.85827 108.758 0.0724503 101.319 0.0724503H7.71274C5.43974 -0.340822 0.769754 0.816341 0.273827 8.75118C-0.2221 16.686 0.0671907 48.4253 0.273827 63.3031C0.273838 65.3694 2.13359 69.75 9.5725 70.742C17.0114 71.7339 21.764 71.1553 23.2105 70.742L16.3915 85ZM22.8371 13.6379C21.1802 13.6379 19.8371 14.9811 19.8371 16.6379V18.0768C19.8371 19.7337 21.1802 21.0768 22.8371 21.0768H44.1131C45.77 21.0768 47.1131 19.7337 47.1131 18.0768V16.6379C47.1131 14.9811 45.77 13.6379 44.1131 13.6379H22.8371ZM24.0769 32.2354C22.42 32.2354 21.0769 33.5785 21.0769 35.2354V36.6743C21.0769 38.3311 22.4201 39.6743 24.0769 39.6743H77.5882C79.245 39.6743 80.5882 38.3311 80.5882 36.6743V35.2354C80.5882 33.5785 79.245 32.2354 77.5882 32.2354H24.0769ZM21.0769 52.5928C21.0769 50.9359 22.42 49.5928 24.0769 49.5928H75.1085C76.7654 49.5928 78.1086 50.9359 78.1086 52.5928V54.0317C78.1086 55.6885 76.7654 57.0317 75.1086 57.0317H24.0769C22.4201 57.0317 21.0769 55.6885 21.0769 54.0317V52.5928Z" fill="white"/>
</svg>
