<svg width="165" height="153" viewBox="0 0 165 153" fill="none" xmlns="http://www.w3.org/2000/svg">
<path fill-rule="evenodd" clip-rule="evenodd" d="M155 110.046C162.167 97.0461 172.2 64.0461 155 36.0461C148.333 24.3795 127.8 0.946132 98.9999 0.546132C88.8333 -0.453868 65.1999 0.146132 51.9999 10.5461L53.4999 1.54602C52.6666 0.379358 50.3999 -1.25398 47.9999 1.54602L44.9999 17.0461L58.9999 25.0461C60.6666 25.0461 63.4999 24.1461 61.4999 20.5461L53.4999 16.0461C59.4999 11.2128 76.9999 2.34614 98.9999 5.54614C109.833 6.21281 135.1 13.8461 149.5 39.0461C156.333 47.5461 166.2 72.8461 151 106.046C150 108.213 149.4 112.046 155 110.046ZM9.49701 42.5603C2.33034 55.5603 -7.70299 88.5603 9.49701 116.56C16.1637 128.227 36.697 151.66 65.497 152.06C75.6637 153.06 99.297 152.46 112.497 142.06L110.997 151.06C111.83 152.227 114.097 153.86 116.497 151.06L119.497 135.56L105.497 127.56C103.83 127.56 100.997 128.46 102.997 132.06L110.997 136.56C104.997 141.394 87.497 150.26 65.497 147.06C54.6637 146.394 29.397 138.76 14.997 113.56C8.16367 105.06 -1.70299 79.7603 13.497 46.5603C14.497 44.3936 15.097 40.5603 9.49701 42.5603ZM52.0767 75.2346C52.0767 73.5778 53.4198 72.2346 55.0767 72.2346H108.588C110.245 72.2346 111.588 73.5778 111.588 75.2346V76.6735C111.588 78.3304 110.245 79.6735 108.588 79.6735H55.0767C53.4198 79.6735 52.0767 78.3304 52.0767 76.6735V75.2346ZM53.8369 53.6372C52.18 53.6372 50.8369 54.9804 50.8369 56.6372V58.0761C50.8369 59.733 52.18 61.0761 53.8369 61.0761H75.1129C76.7697 61.0761 78.1129 59.733 78.1129 58.0761V56.6372C78.1129 54.9804 76.7697 53.6372 75.1129 53.6372H53.8369ZM52.0767 92.592C52.0767 90.9352 53.4198 89.592 55.0767 89.592H106.108C107.765 89.592 109.108 90.9352 109.108 92.592V94.0309C109.108 95.6878 107.765 97.0309 106.108 97.0309H55.0767C53.4198 97.0309 52.0767 95.6878 52.0767 94.0309V92.592ZM38.9456 37.0718H39.0432H39.2095H39.3766H39.5443H39.7127H39.8817H40.0514H40.2218H40.3928H40.5645H40.7368H40.9097H41.0833H41.2576H41.4324H41.6079H41.784H41.9607H42.1381H42.3161H42.4946H42.6738H42.8536H43.034H43.215H43.3965H43.5787H43.7614H43.9448H44.1287H44.3132H44.4982H44.6838H44.87H45.0567H45.244H45.4319H45.6203H45.8092H45.9987H46.1887H46.3793H46.5704H46.762H46.9541H47.1468H47.3399H47.5336H47.7278H47.9225H48.1177H48.3134H48.5096H48.7063H48.9035H49.1011H49.2993H49.4979H49.697H49.8966H50.0966H50.2971H50.498H50.6994H50.9013H51.1036H51.3063H51.5095H51.7131H51.9172H52.1217H52.3266H52.5319H52.7377H52.9439H53.1504H53.3574H53.5648H53.7726H53.9808H54.1894H54.3984H54.6078H54.8175H55.0276H55.2381H55.449H55.6603H55.8719H56.0839H56.2962H56.5089H56.7219H56.9353H57.149H57.3631H57.5775H57.7922H58.0073H58.2227H58.4384H58.6544H58.8708H59.0874H59.3044H59.5217H59.7392H59.9571H60.1753H60.3937H60.6124H60.8315H61.0508H61.2703H61.4902H61.7103H61.9306H62.1513H62.3722H62.5933H62.8147H63.0364H63.2582H63.4804H63.7027H63.9253H64.1481H64.3712H64.5944H64.8179H65.0416H65.2655H65.4896H65.7139H65.9385H66.1632H66.3881H66.6132H66.8384H67.0639H67.2895H67.5153H67.7413H67.9675H68.1938H68.4202H68.6469H68.8737H69.1006H69.3277H69.5549H69.7822H70.0097H70.2373H70.4651H70.693H70.9209H71.1491H71.3773H71.6056H71.834H72.0626H72.2912H72.5199H72.7488H72.9777H73.2067H73.4357H73.6649H73.8941H74.1234H74.3528H74.5822H74.8117H75.0412H75.2708H75.5004H75.7301H75.9599H76.1896H76.4194H76.6492H76.8791H77.109H77.3388H77.5688H77.7987H78.0286H78.2585H78.4885H78.7184H78.9483H79.1783H79.4082H79.6381H79.8679H80.0978H80.3276H80.5574H80.7871H81.0168H81.2465H81.4761H81.7057H81.9352H82.1647H82.3941H82.6234H82.8527H83.0819H83.311H83.5401H83.7691H83.998H84.2268H84.4555H84.6841H84.9126H85.141H85.3693H85.5975H85.8255H86.0535H86.2813H86.509H86.7366H86.9641H87.1914H87.4186H87.6456H87.8725H88.0992H88.3258H88.5522H88.7785H89.0046H89.2305H89.4563H89.6819H89.9073H90.1325H90.3575H90.5824H90.8071H91.0315H91.2558H91.4798H91.7037H91.9273H92.1507H92.3739H92.5969H92.8197H93.0422H93.2645H93.4865H93.7084H93.9299H94.1513H94.3723H94.5931H94.8137H95.034H95.254H95.4738H95.6933H95.9125H96.1315H96.3501H96.5685H96.7866H97.0043H97.2218H97.439H97.6559H97.8724H98.0887H98.3046H98.5203H98.7356H98.9505H99.1652H99.3795H99.5935H99.8071H100.02H100.233H100.446H100.658H100.87H101.082H101.293H101.503H101.714H101.924H102.133H102.343H102.552H102.76H102.968H103.176H103.383H103.59H103.797H104.003H104.208H104.413H104.618H104.823H105.027H105.23H105.433H105.636H105.838H106.04H106.241H106.442H106.642H106.842H107.041H107.24H107.439H107.637H107.834H108.031H108.228H108.424H108.62H108.815H109.009H109.203H109.397H109.59H109.782H109.974H110.166H110.357H110.547H110.737H110.926H111.115H111.303H111.491H111.678H111.865H112.051H112.236H112.421H112.605H112.789H112.972H113.155H113.337H113.518H113.699H113.879H114.059H114.238H114.416H114.594H114.771H114.948H115.124H115.299H115.474H115.648H115.821H115.994H116.166H116.338H116.509H116.679H116.848H117.017H117.185H117.353H117.52H117.686H117.851H118.016H118.18H118.344H118.506H118.668H118.83H118.99H119.15H119.31H119.468H119.626H119.783H119.939H120.095H120.25H120.404H120.557H120.71H120.862H121.013H121.163H121.313H121.462H121.61H121.757H121.904H122.05H122.195H122.339H122.482H122.625H122.767H122.908H123.048H123.188H123.326H123.464H123.601H123.737H123.873H124.007H124.141H124.274H124.406H124.537H124.667H124.797H124.925H125.053H125.18H125.306H125.431H125.556H125.679H125.802H125.923H126.044H126.164H126.283H126.401H126.518H126.635H126.75H126.865H126.978H127.091H127.203H127.313H127.423H127.532H127.64H127.747H127.854H127.959H128.063H128.166H128.269H128.37H128.471H128.57H128.669H128.766H128.863H128.958H129.053H129.146H129.239H129.33H129.421H129.511H129.599H129.687H129.773H129.859H129.943H130.027H130.109H130.191H130.271H130.35H130.429H130.506H130.582H130.657H130.731H130.804H130.876H130.947H131.017H131.086H131.153H131.22H131.286H131.35H131.413H131.476H131.537H131.597H131.656H131.713H131.77H131.826H131.88H131.933H131.985H132.037H132.086H132.135H132.183H132.229H132.275H132.319C136.925 37.0718 140.191 38.9099 142.284 41.3929C144.281 43.7627 145.089 46.5657 145.23 48.5368L145.237 48.6435V48.7505V48.8379V48.9256V49.0137V49.1022V49.1911V49.2803V49.3699V49.4599V49.5503V49.641V49.732V49.8235V49.9152V50.0074V50.0999V50.1927V50.2859V50.3795V50.4734V50.5676V50.6622V50.7571V50.8524V50.948V51.0439V51.1402V51.2368V51.3337V51.431V51.5286V51.6265V51.7248V51.8233V51.9222V52.0214V52.1209V52.2207V52.3209V52.4213V52.5221V52.6231V52.7245V52.8262V52.9282V53.0304V53.133V53.2359V53.339V53.4425V53.5462V53.6503V53.7546V53.8592V53.9641V54.0692V54.1747V54.2804V54.3864V54.4927V54.5992V54.706V54.8131V54.9205V55.0281V55.1359V55.2441V55.3525V55.4611V55.57V55.6792V55.7886V55.8982V56.0082V56.1183V56.2287V56.3393V56.4502V56.5613V56.6727V56.7843V56.8961V57.0082V57.1204V57.233V57.3457V57.4587V57.5718V57.6852V57.7989V57.9127V58.0268V58.141V58.2555V58.3702V58.4851V58.6002V58.7155V58.831V58.9467V59.0626V59.1787V59.295V59.4115V59.5281V59.645V59.762V59.8793V59.9967V60.1143V60.2321V60.35V60.4682V60.5865V60.705V60.8236V60.9424V61.0614V61.1806V61.2999V61.4194V61.539V61.6588V61.7788V61.8989V62.0191V62.1395V62.2601V62.3808V62.5016V62.6226V62.7437V62.865V62.9864V63.1079V63.2296V63.3514V63.4734V63.5954V63.7176V63.8399V63.9624V64.0849V64.2076V64.3304V64.4533V64.5763V64.6995V64.8227V64.9461V65.0695V65.1931V65.3168V65.4405V65.5644V65.6884V65.8124V65.9366V66.0608V66.1851V66.3096V66.4341V66.5587V66.6833V66.8081V66.9329V67.0578V67.1828V67.3079V67.433V67.5582V67.6834V67.8088V67.9342V68.0596V68.1851V68.3107V68.4363V68.562V68.6877V68.8135V68.9394V69.0652V69.1912V69.3171V69.4432V69.5692V69.6953V69.8214V69.9476V70.0738V70.2V70.3263V70.4525V70.5788V70.7052V70.8315V70.9579V71.0843V71.2107V71.3371V71.4635V71.59V71.7164V71.8429V71.9693V72.0958V72.2223V72.3487V72.4752V72.6017V72.7281V72.8545V72.981V73.1074V73.2338V73.3602V73.4866V73.6129V73.7393V73.8656V73.9919V74.1181V74.2444V74.3706V74.4967V74.6229V74.749V74.875V75.0011V75.127V75.253V75.3789V75.5047V75.6305V75.7563V75.882V76.0076V76.1332V76.2588V76.3842V76.5096V76.635V76.7603V76.8855V77.0106V77.1357V77.2607V77.3856V77.5105V77.6353V77.76V77.8846V78.0091V78.1335V78.2579V78.3822V78.5064V78.6304V78.7544V78.8783V79.0021V79.1258V79.2494V79.3729V79.4963V79.6196V79.7427V79.8658V79.9887V80.1116V80.2343V80.3569V80.4794V80.6017V80.7239V80.846V80.968V81.0899V81.2116V81.3332V81.4546V81.5759V81.6971V81.8181V81.939V82.0598V82.1803V82.3008V82.4211V82.5412V82.6612V82.7811V82.9008V83.0203V83.1115C144.168 83.0371 143.088 82.9993 142 82.9993C141.072 82.9993 140.151 83.0268 139.237 83.0809V83.0203V82.9008V82.7811V82.6612V82.5412V82.4211V82.3008V82.1803V82.0598V81.939V81.8181V81.6971V81.5759V81.4546V81.3332V81.2116V81.0899V80.968V80.846V80.7239V80.6017V80.4794V80.3569V80.2343V80.1116V79.9887V79.8658V79.7427V79.6196V79.4963V79.3729V79.2494V79.1258V79.0021V78.8783V78.7544V78.6304V78.5064V78.3822V78.2579V78.1335V78.0091V77.8846V77.76V77.6353V77.5105V77.3856V77.2607V77.1357V77.0106V76.8855V76.7603V76.635V76.5096V76.3842V76.2588V76.1332V76.0076V75.882V75.7563V75.6305V75.5047V75.3789V75.253V75.127V75.0011V74.875V74.749V74.6229V74.4967V74.3706V74.2444V74.1181V73.9919V73.8656V73.7393V73.6129V73.4866V73.3602V73.2338V73.1074V72.981V72.8545V72.7281V72.6017V72.4752V72.3487V72.2223V72.0958V71.9693V71.8429V71.7164V71.59V71.4635V71.3371V71.2107V71.0843V70.9579V70.8315V70.7052V70.5788V70.4525V70.3263V70.2V70.0738V69.9476V69.8214V69.6953V69.5692V69.4432V69.3171V69.1912V69.0652V68.9394V68.8135V68.6877V68.562V68.4363V68.3107V68.1851V68.0596V67.9342V67.8088V67.6834V67.5582V67.433V67.3079V67.1828V67.0578V66.9329V66.8081V66.6833V66.5587V66.4341V66.3096V66.1851V66.0608V65.9366V65.8124V65.6884V65.5644V65.4405V65.3168V65.1931V65.0695V64.9461V64.8227V64.6995V64.5763V64.4533V64.3304V64.2076V64.0849V63.9624V63.8399V63.7176V63.5954V63.4734V63.3514V63.2296V63.1079V62.9864V62.865V62.7437V62.6226V62.5016V62.3808V62.2601V62.1395V62.0191V61.8989V61.7788V61.6588V61.539V61.4194V61.2999V61.1806V61.0614V60.9424V60.8236V60.705V60.5865V60.4682V60.35V60.2321V60.1143V59.9967V59.8793V59.762V59.645V59.5281V59.4115V59.295V59.1787V59.0626V58.9467V58.831V58.7155V58.6002V58.4851V58.3702V58.2555V58.141V58.0268V57.9127V57.7989V57.6852V57.5718V57.4587V57.3457V57.233V57.1204V57.0082V56.8961V56.7843V56.6727V56.5613V56.4502V56.3393V56.2287V56.1183V56.0082V55.8982V55.7886V55.6792V55.57V55.4611V55.3525V55.2441V55.1359V55.0281V54.9205V54.8131V54.706V54.5992V54.4927V54.3864V54.2804V54.1747V54.0692V53.9641V53.8592V53.7546V53.6503V53.5462V53.4425V53.339V53.2359V53.133V53.0304V52.9282V52.8262V52.7245V52.6231V52.5221V52.4213V52.3209V52.2207V52.1209V52.0214V51.9222V51.8233V51.7248V51.6265V51.5286V51.431V51.3337V51.2368V51.1402V51.0439V50.948V50.8524V50.7571V50.6622V50.5676V50.4734V50.3795V50.2859V50.1927V50.0999V50.0074V49.9152V49.8235V49.732V49.641V49.5503V49.4599V49.3699V49.2803V49.1911V49.1022V49.0137V48.9256V48.8721C139.15 47.9425 138.712 46.4654 137.696 45.2597C136.741 44.1265 135.152 43.0718 132.319 43.0718H132.275H132.229H132.183H132.135H132.086H132.037H131.985H131.933H131.88H131.826H131.77H131.713H131.656H131.597H131.537H131.476H131.413H131.35H131.286H131.22H131.153H131.086H131.017H130.947H130.876H130.804H130.731H130.657H130.582H130.506H130.429H130.35H130.271H130.191H130.109H130.027H129.943H129.859H129.773H129.687H129.599H129.511H129.421H129.33H129.239H129.146H129.053H128.958H128.863H128.766H128.669H128.57H128.471H128.37H128.269H128.166H128.063H127.959H127.854H127.747H127.64H127.532H127.423H127.313H127.203H127.091H126.978H126.865H126.75H126.635H126.518H126.401H126.283H126.164H126.044H125.923H125.802H125.679H125.556H125.431H125.306H125.18H125.053H124.925H124.797H124.667H124.537H124.406H124.274H124.141H124.007H123.873H123.737H123.601H123.464H123.326H123.188H123.048H122.908H122.767H122.625H122.482H122.339H122.195H122.05H121.904H121.757H121.61H121.462H121.313H121.163H121.013H120.862H120.71H120.557H120.404H120.25H120.095H119.939H119.783H119.626H119.468H119.31H119.15H118.99H118.83H118.668H118.506H118.344H118.18H118.016H117.851H117.686H117.52H117.353H117.185H117.017H116.848H116.679H116.509H116.338H116.166H115.994H115.821H115.648H115.474H115.299H115.124H114.948H114.771H114.594H114.416H114.238H114.059H113.879H113.699H113.518H113.337H113.155H112.972H112.789H112.605H112.421H112.236H112.051H111.865H111.678H111.491H111.303H111.115H110.926H110.737H110.547H110.357H110.166H109.974H109.782H109.59H109.397H109.203H109.009H108.815H108.62H108.424H108.228H108.031H107.834H107.637H107.439H107.24H107.041H106.842H106.642H106.442H106.241H106.04H105.838H105.636H105.433H105.23H105.027H104.823H104.618H104.413H104.208H104.003H103.797H103.59H103.383H103.176H102.968H102.76H102.552H102.343H102.133H101.924H101.714H101.503H101.293H101.082H100.87H100.658H100.446H100.233H100.02H99.8071H99.5935H99.3795H99.1652H98.9505H98.7356H98.5203H98.3046H98.0887H97.8724H97.6559H97.439H97.2218H97.0043H96.7866H96.5685H96.3501H96.1315H95.9125H95.6933H95.4738H95.254H95.034H94.8137H94.5931H94.3723H94.1513H93.9299H93.7084H93.4865H93.2645H93.0422H92.8197H92.5969H92.3739H92.1507H91.9273H91.7037H91.4798H91.2558H91.0315H90.8071H90.5824H90.3575H90.1325H89.9073H89.6819H89.4563H89.2305H89.0046H88.7785H88.5522H88.3258H88.0992H87.8725H87.6456H87.4186H87.1914H86.9641H86.7366H86.509H86.2813H86.0535H85.8255H85.5975H85.3693H85.141H84.9126H84.6841H84.4555H84.2268H83.998H83.7691H83.5401H83.311H83.0819H82.8527H82.6234H82.3941H82.1647H81.9352H81.7057H81.4761H81.2465H81.0168H80.7871H80.5574H80.3276H80.0978H79.8679H79.6381H79.4082H79.1783H78.9483H78.7184H78.4885H78.2585H78.0286H77.7987H77.5688H77.3388H77.109H76.8791H76.6492H76.4194H76.1896H75.9599H75.7301H75.5004H75.2708H75.0412H74.8117H74.5822H74.3528H74.1234H73.8941H73.6649H73.4357H73.2067H72.9777H72.7488H72.5199H72.2912H72.0626H71.834H71.6056H71.3773H71.1491H70.9209H70.693H70.4651H70.2373H70.0097H69.7822H69.5549H69.3277H69.1006H68.8737H68.6469H68.4202H68.1938H67.9675H67.7413H67.5153H67.2895H67.0639H66.8384H66.6132H66.3881H66.1632H65.9385H65.7139H65.4896H65.2655H65.0416H64.8179H64.5944H64.3712H64.1481H63.9253H63.7027H63.4804H63.2582H63.0364H62.8147H62.5933H62.3722H62.1513H61.9306H61.7103H61.4902H61.2703H61.0508H60.8315H60.6124H60.3937H60.1753H59.9571H59.7392H59.5217H59.3044H59.0874H58.8708H58.6544H58.4384H58.2227H58.0073H57.7922H57.5775H57.3631H57.149H56.9353H56.7219H56.5089H56.2962H56.0839H55.8719H55.6603H55.449H55.2381H55.0276H54.8175H54.6078H54.3984H54.1894H53.9808H53.7726H53.5648H53.3574H53.1504H52.9439H52.7377H52.5319H52.3266H52.1217H51.9172H51.7131H51.5095H51.3063H51.1036H50.9013H50.6994H50.498H50.2971H50.0966H49.8966H49.697H49.4979H49.2993H49.1011H48.9035H48.7063H48.5096H48.3134H48.1177H47.9225H47.7278H47.5336H47.3399H47.1468H46.9541H46.762H46.5704H46.3793H46.1887H45.9987H45.8092H45.6203H45.4319H45.244H45.0567H44.87H44.6838H44.4982H44.3132H44.1287H43.9448H43.7614H43.5787H43.3965H43.215H43.034H42.8536H42.6738H42.4946H42.3161H42.1381H41.9607H41.784H41.6079H41.4324H41.2576H41.0833H40.9097H40.7368H40.5645H40.3928H40.2218H40.0514H39.8817H39.7127H39.5443H39.3766H39.2095H39.0432H38.8775H38.7125H38.442L38.1758 43.0234C37.7798 42.9514 36.962 43.0049 36.2181 43.6092C35.5328 44.1658 34.4797 45.5469 34.2677 48.9377C33.781 56.7259 34.0656 88.3088 34.2733 103.261L34.2736 103.282V103.302C34.2736 103.67 34.8184 106.948 40.9688 107.768C48.1834 108.73 52.4826 108.115 53.386 107.857L59.7905 106.027L56.9166 112.036L53.8701 118.406L72.0858 109.298L72.7192 108.981H73.4274H100.572C99.6384 110.91 98.8355 112.914 98.1747 114.981H74.1356L48.7328 127.683L40.9123 131.593L44.6848 123.705L49.1922 114.28C46.7683 114.327 43.7374 114.19 40.1757 113.715C31.4667 112.554 28.287 107.091 28.2736 103.326C28.068 88.515 27.7745 56.6416 28.2794 48.5634C28.5634 44.0193 30.0932 40.8544 32.4351 38.952C34.5979 37.1952 37.0931 36.8168 38.9456 37.0718Z" fill="#FAF3F3"/>
</svg>
