<svg width="134" height="112" viewBox="0 0 134 112" fill="none" xmlns="http://www.w3.org/2000/svg">
<rect x="24.0767" y="35.2346" width="59.5113" height="7.43891" rx="3" fill="#FAF3F3"/>
<rect x="22.8369" y="16.6372" width="27.276" height="7.43891" rx="3" fill="#FAF3F3"/>
<rect x="24.0767" y="52.592" width="57.0316" height="7.43891" rx="3" fill="#FAF3F3"/>
<path fill-rule="evenodd" clip-rule="evenodd" d="M11.0432 0.0717902H10.9457C9.09315 -0.1832 6.598 0.195223 4.43521 1.95203C2.09324 3.85437 0.563481 7.01931 0.279476 11.5634C-0.225411 19.6416 0.068082 51.515 0.273676 66.3263C0.287084 70.0906 3.46678 75.5537 12.1758 76.715C15.7375 77.1899 18.7684 77.3269 21.1922 77.2805L16.6849 86.705L12.9124 94.5929L20.7329 90.6826L46.1357 77.9813H70.1748C70.8355 75.9139 71.6385 73.91 72.5722 71.9813H45.4275H44.7192L44.0858 72.298L25.8701 81.4058L28.9167 75.0357L31.7905 69.0268L25.3861 70.8568C24.4826 71.1149 20.1834 71.7297 12.9688 70.7677C6.81843 69.9475 6.27364 66.67 6.27363 66.3024V66.2816L6.27334 66.2608C6.06568 51.3088 5.78103 19.7259 6.26779 11.9377C6.47971 8.54689 7.53291 7.16583 8.21816 6.6092C8.9621 6.00491 9.77987 5.9514 10.1759 6.0234L10.442 6.07179H10.7125H10.8775H11.0432H11.2096H11.3766H11.5444H11.7127H11.8818H12.0515H12.2218H12.3929H12.5645H12.7368H12.9098H13.0834H13.2576H13.4325H13.608H13.7841H13.9608H14.1382H14.3161H14.4947H14.6739H14.8537H15.0341H15.215H15.3966H15.5788H15.7615H15.9448H16.1287H16.3132H16.4983H16.6839H16.8701H17.0568H17.2441H17.4319H17.6203H17.8093H17.9988H18.1888H18.3793H18.5704H18.762H18.9542H19.1468H19.34H19.5337H19.7279H19.9226H20.1178H20.3135H20.5097H20.7064H20.9036H21.1012H21.2994H21.498H21.6971H21.8966H22.0966H22.2971H22.4981H22.6995H22.9013H23.1036H23.3064H23.5096H23.7132H23.9173H24.1217H24.3267H24.532H24.7377H24.9439H25.1505H25.3575H25.5649H25.7727H25.9809H26.1895H26.3985H26.6078H26.8176H27.0277H27.2382H27.4491H27.6603H27.8719H28.0839H28.2963H28.5089H28.722H28.9354H29.1491H29.3632H29.5776H29.7923H30.0074H30.2227H30.4385H30.6545H30.8708H31.0875H31.3045H31.5217H31.7393H31.9572H32.1753H32.3938H32.6125H32.8315H33.0508H33.2704H33.4902H33.7103H33.9307H34.1513H34.3722H34.5934H34.8148H35.0364H35.2583H35.4804H35.7028H35.9254H36.1482H36.3712H36.5945H36.818H37.0417H37.2656H37.4897H37.714H37.9385H38.1632H38.3881H38.6132H38.8385H39.064H39.2896H39.5154H39.7414H39.9675H40.1938H40.4203H40.6469H40.8737H41.1006H41.3277H41.5549H41.7823H42.0098H42.2374H42.4651H42.693H42.921H43.1491H43.3773H43.6057H43.8341H44.0626H44.2913H44.52H44.7488H44.9777H45.2067H45.4358H45.665H45.8942H46.1235H46.3528H46.5823H46.8117H47.0413H47.2709H47.5005H47.7302H47.9599H48.1897H48.4195H48.6493H48.8791H49.109H49.3389H49.5688H49.7987H50.0287H50.2586H50.4885H50.7185H50.9484H51.1783H51.4082H51.6381H51.868H52.0978H52.3276H52.5574H52.7872H53.0169H53.2466H53.4762H53.7058H53.9353H54.1647H54.3942H54.6235H54.8528H55.082H55.3111H55.5402H55.7691H55.998H56.2268H56.4555H56.6841H56.9126H57.141H57.3693H57.5975H57.8256H58.0536H58.2814H58.5091H58.7367H58.9641H59.1915H59.4186H59.6457H59.8726H60.0993H60.3259H60.5523H60.7786H61.0047H61.2306H61.4564H61.6819H61.9073H62.1326H62.3576H62.5825H62.8071H63.0316H63.2558H63.4799H63.7037H63.9274H64.1508H64.374H64.597H64.8197H65.0423H65.2645H65.4866H65.7084H65.93H66.1513H66.3724H66.5932H66.8138H67.0341H67.2541H67.4739H67.6934H67.9126H68.1315H68.3502H68.5685H68.7866H69.0044H69.2219H69.4391H69.6559H69.8725H70.0888H70.3047H70.5203H70.7356H70.9506H71.1652H71.3796H71.5935H71.8072H72.0204H72.2334H72.446H72.6582H72.8701H73.0816H73.2927H73.5035H73.7139H73.9239H74.1336H74.3428H74.5517H74.7602H74.9683H75.1759H75.3832H75.5901H75.7966H76.0026H76.2083H76.4135H76.6183H76.8226H77.0266H77.2301H77.4331H77.6358H77.8379H78.0397H78.2409H78.4418H78.6421H78.842H79.0414H79.2404H79.4389H79.6369H79.8344H80.0314H80.228H80.4241H80.6196H80.8147H81.0092H81.2033H81.3968H81.5899H81.7824H81.9744H82.1658H82.3568H82.5472H82.737H82.9264H83.1152H83.3034H83.4911H83.6782H83.8648H84.0508H84.2363H84.4212H84.6055H84.7892H84.9724H85.155H85.337H85.5184H85.6992H85.8794H86.059H86.238H86.4164H86.5942H86.7714H86.948H87.1239H87.2992H87.4739H87.6479H87.8214H87.9941H88.1663H88.3377H88.5086H88.6787H88.8483H89.0171H89.1853H89.3528H89.5197H89.6859H89.8514H90.0162H90.1803H90.3437H90.5065H90.6685H90.8299H90.9905H91.1504H91.3096H91.4681H91.6259H91.783H91.9393H92.0949H92.2498H92.4039H92.5573H92.71H92.8619H93.013H93.1634H93.313H93.4619H93.61H93.7573H93.9039H94.0497H94.1947H94.3389H94.4824H94.625H94.7668H94.9079H95.0481H95.1876H95.3262H95.464H95.601H95.7372H95.8726H96.0071H96.1408H96.2737H96.4057H96.5369H96.6672H96.7967H96.9253H97.0531H97.1801H97.3061H97.4313H97.5556H97.6791H97.8016H97.9233H98.0441H98.164H98.2831H98.4012H98.5184H98.6348H98.7502H98.8647H98.9783H99.091H99.2027H99.3135H99.4234H99.5324H99.6405H99.7476H99.8537H99.9589H100.063H100.166H100.269H100.37H100.471H100.57H100.669H100.766H100.863H100.958H101.053H101.146H101.239H101.33H101.421H101.511H101.599H101.687H101.773H101.859H101.943H102.027H102.109H102.191H102.271H102.35H102.429H102.506H102.582H102.657H102.731H102.804H102.876H102.947H103.017H103.086H103.154H103.22H103.286H103.35H103.413H103.476H103.537H103.597H103.656H103.713H103.77H103.826H103.88H103.933H103.986H104.037H104.086H104.135H104.183H104.229H104.275H104.319C107.152 6.07179 108.741 7.12655 109.696 8.25973C110.713 9.46541 111.15 10.9425 111.237 11.8721V11.9256V12.0137V12.1022V12.1911V12.2803V12.37V12.4599V12.5503V12.641V12.732V12.8235V12.9152V13.0074V13.0999V13.1927V13.2859V13.3795V13.4734V13.5676V13.6622V13.7571V13.8524V13.948V14.0439V14.1402V14.2368V14.3337V14.431V14.5286V14.6265V14.7248V14.8233V14.9222V15.0214V15.1209V15.2207V15.3209V15.4213V15.5221V15.6231V15.7245V15.8262V15.9282V16.0304V16.133V16.2359V16.339V16.4425V16.5462V16.6503V16.7546V16.8592V16.9641V17.0692V17.1747V17.2804V17.3864V17.4927V17.5992V17.706V17.8131V17.9205V18.0281V18.1359V18.2441V18.3525V18.4611V18.57V18.6792V18.7886V18.8982V19.0082V19.1183V19.2287V19.3393V19.4502V19.5613V19.6727V19.7843V19.8961V20.0082V20.1205V20.233V20.3457V20.4587V20.5718V20.6852V20.7989V20.9127V21.0268V21.141V21.2555V21.3702V21.4851V21.6002V21.7155V21.831V21.9467V22.0626V22.1787V22.295V22.4115V22.5281V22.645V22.762V22.8793V22.9967V23.1143V23.2321V23.35V23.4682V23.5865V23.705V23.8236V23.9424V24.0614V24.1806V24.2999V24.4194V24.539V24.6588V24.7788V24.8989V25.0191V25.1395V25.2601V25.3808V25.5016V25.6226V25.7437V25.865V25.9864V26.1079V26.2296V26.3514V26.4734V26.5954V26.7176V26.8399V26.9624V27.0849V27.2076V27.3304V27.4533V27.5763V27.6995V27.8227V27.9461V28.0695V28.1931V28.3168V28.4405V28.5644V28.6884V28.8124V28.9366V29.0608V29.1851V29.3096V29.4341V29.5587V29.6833V29.8081V29.9329V30.0578V30.1828V30.3079V30.433V30.5582V30.6834V30.8088V30.9342V31.0596V31.1851V31.3107V31.4363V31.562V31.6877V31.8135V31.9394V32.0652V32.1912V32.3171V32.4432V32.5692V32.6953V32.8214V32.9476V33.0738V33.2V33.3263V33.4525V33.5789V33.7052V33.8315V33.9579V34.0843V34.2107V34.3371V34.4635V34.59V34.7164V34.8429V34.9693V35.0958V35.2223V35.3487V35.4752V35.6017V35.7281V35.8545V35.981V36.1074V36.2338V36.3602V36.4866V36.6129V36.7393V36.8656V36.9919V37.1181V37.2444V37.3706V37.4967V37.6229V37.749V37.875V38.0011V38.1271V38.253V38.3789V38.5047V38.6305V38.7563V38.882V39.0076V39.1332V39.2588V39.3842V39.5096V39.635V39.7603V39.8855V40.0106V40.1357V40.2607V40.3856V40.5105V40.6353V40.76V40.8846V41.0091V41.1335V41.2579V41.3822V41.5064V41.6304V41.7544V41.8783V42.0021V42.1258V42.2494V42.3729V42.4963V42.6196V42.7427V42.8658V42.9887V43.1116V43.2343V43.3569V43.4794V43.6017V43.7239V43.846V43.968V44.0899V44.2116V44.3332V44.4546V44.5759V44.6971V44.8181V44.939V45.0598V45.1804V45.3008V45.4211V45.5413V45.6612V45.7811V45.9008V46.0203V46.0809C112.151 46.0268 113.072 45.9993 114 45.9993C115.088 45.9993 116.168 46.0371 117.237 46.1115V46.0203V45.9008V45.7811V45.6612V45.5413V45.4211V45.3008V45.1804V45.0598V44.939V44.8181V44.6971V44.5759V44.4546V44.3332V44.2116V44.0899V43.968V43.846V43.7239V43.6017V43.4794V43.3569V43.2343V43.1116V42.9887V42.8658V42.7427V42.6196V42.4963V42.3729V42.2494V42.1258V42.0021V41.8783V41.7544V41.6304V41.5064V41.3822V41.2579V41.1335V41.0091V40.8846V40.76V40.6353V40.5105V40.3856V40.2607V40.1357V40.0106V39.8855V39.7603V39.635V39.5096V39.3842V39.2588V39.1332V39.0076V38.882V38.7563V38.6305V38.5047V38.3789V38.253V38.1271V38.0011V37.875V37.749V37.6229V37.4967V37.3706V37.2444V37.1181V36.9919V36.8656V36.7393V36.6129V36.4866V36.3602V36.2338V36.1074V35.981V35.8545V35.7281V35.6017V35.4752V35.3487V35.2223V35.0958V34.9693V34.8429V34.7164V34.59V34.4635V34.3371V34.2107V34.0843V33.9579V33.8315V33.7052V33.5789V33.4525V33.3263V33.2V33.0738V32.9476V32.8214V32.6953V32.5692V32.4432V32.3171V32.1912V32.0652V31.9394V31.8135V31.6877V31.562V31.4363V31.3107V31.1851V31.0596V30.9342V30.8088V30.6834V30.5582V30.433V30.3079V30.1828V30.0578V29.9329V29.8081V29.6833V29.5587V29.4341V29.3096V29.1851V29.0608V28.9366V28.8124V28.6884V28.5644V28.4405V28.3168V28.1931V28.0695V27.9461V27.8227V27.6995V27.5763V27.4533V27.3304V27.2076V27.0849V26.9624V26.8399V26.7176V26.5954V26.4734V26.3514V26.2296V26.1079V25.9864V25.865V25.7437V25.6226V25.5016V25.3808V25.2601V25.1395V25.0191V24.8989V24.7788V24.6588V24.539V24.4194V24.2999V24.1806V24.0614V23.9424V23.8236V23.705V23.5865V23.4682V23.35V23.2321V23.1143V22.9967V22.8793V22.762V22.645V22.5281V22.4115V22.295V22.1787V22.0626V21.9467V21.831V21.7155V21.6002V21.4851V21.3702V21.2555V21.141V21.0268V20.9127V20.7989V20.6852V20.5718V20.4587V20.3457V20.233V20.1205V20.0082V19.8961V19.7843V19.6727V19.5613V19.4502V19.3393V19.2287V19.1183V19.0082V18.8982V18.7886V18.6792V18.57V18.4611V18.3525V18.2441V18.1359V18.0281V17.9205V17.8131V17.706V17.5992V17.4927V17.3864V17.2804V17.1747V17.0692V16.9641V16.8592V16.7546V16.6503V16.5462V16.4425V16.339V16.2359V16.133V16.0304V15.9282V15.8262V15.7245V15.6231V15.5221V15.4213V15.3209V15.2207V15.1209V15.0214V14.9222V14.8233V14.7248V14.6265V14.5286V14.431V14.3337V14.2368V14.1402V14.0439V13.948V13.8524V13.7571V13.6622V13.5676V13.4734V13.3795V13.2859V13.1927V13.0999V13.0074V12.9152V12.8235V12.732V12.641V12.5503V12.4599V12.37V12.2803V12.1911V12.1022V12.0137V11.9256V11.8379V11.7505V11.6435L117.23 11.5368C117.089 9.56575 116.281 6.7627 114.284 4.3929C112.191 1.90994 108.925 0.0717902 104.319 0.0717902H104.275H104.229H104.183H104.135H104.086H104.037H103.986H103.933H103.88H103.826H103.77H103.713H103.656H103.597H103.537H103.476H103.413H103.35H103.286H103.22H103.154H103.086H103.017H102.947H102.876H102.804H102.731H102.657H102.582H102.506H102.429H102.35H102.271H102.191H102.109H102.027H101.943H101.859H101.773H101.687H101.599H101.511H101.421H101.33H101.239H101.146H101.053H100.958H100.863H100.766H100.669H100.57H100.471H100.37H100.269H100.166H100.063H99.9589H99.8537H99.7476H99.6405H99.5324H99.4234H99.3135H99.2027H99.091H98.9783H98.8647H98.7502H98.6348H98.5184H98.4012H98.2831H98.164H98.0441H97.9233H97.8016H97.6791H97.5556H97.4313H97.3061H97.1801H97.0531H96.9253H96.7967H96.6672H96.5369H96.4057H96.2737H96.1408H96.0071H95.8726H95.7372H95.601H95.464H95.3262H95.1876H95.0481H94.9079H94.7668H94.625H94.4824H94.3389H94.1947H94.0497H93.9039H93.7573H93.61H93.4619H93.313H93.1634H93.013H92.8619H92.71H92.5573H92.4039H92.2498H92.0949H91.9393H91.783H91.6259H91.4681H91.3096H91.1504H90.9905H90.8299H90.6685H90.5065H90.3437H90.1803H90.0162H89.8514H89.6859H89.5197H89.3528H89.1853H89.0171H88.8483H88.6787H88.5086H88.3377H88.1663H87.9941H87.8214H87.6479H87.4739H87.2992H87.1239H86.948H86.7714H86.5942H86.4164H86.238H86.059H85.8794H85.6992H85.5184H85.337H85.155H84.9724H84.7892H84.6055H84.4212H84.2363H84.0508H83.8648H83.6782H83.4911H83.3034H83.1152H82.9264H82.737H82.5472H82.3568H82.1658H81.9744H81.7824H81.5899H81.3968H81.2033H81.0092H80.8147H80.6196H80.4241H80.228H80.0314H79.8344H79.6369H79.4389H79.2404H79.0414H78.842H78.6421H78.4418H78.2409H78.0397H77.8379H77.6358H77.4331H77.2301H77.0266H76.8226H76.6183H76.4135H76.2083H76.0026H75.7966H75.5901H75.3832H75.1759H74.9683H74.7602H74.5517H74.3428H74.1336H73.9239H73.7139H73.5035H73.2927H73.0816H72.8701H72.6582H72.446H72.2334H72.0204H71.8072H71.5935H71.3796H71.1652H70.9506H70.7356H70.5203H70.3047H70.0888H69.8725H69.6559H69.4391H69.2219H69.0044H68.7866H68.5685H68.3502H68.1315H67.9126H67.6934H67.4739H67.2541H67.0341H66.8138H66.5932H66.3724H66.1513H65.93H65.7084H65.4866H65.2645H65.0423H64.8197H64.597H64.374H64.1508H63.9274H63.7037H63.4799H63.2558H63.0316H62.8071H62.5825H62.3576H62.1326H61.9073H61.6819H61.4564H61.2306H61.0047H60.7786H60.5523H60.3259H60.0993H59.8726H59.6457H59.4186H59.1915H58.9641H58.7367H58.5091H58.2814H58.0536H57.8256H57.5975H57.3693H57.141H56.9126H56.6841H56.4555H56.2268H55.998H55.7691H55.5402H55.3111H55.082H54.8528H54.6235H54.3942H54.1647H53.9353H53.7058H53.4762H53.2466H53.0169H52.7872H52.5574H52.3276H52.0978H51.868H51.6381H51.4082H51.1783H50.9484H50.7185H50.4885H50.2586H50.0287H49.7987H49.5688H49.3389H49.109H48.8791H48.6493H48.4195H48.1897H47.9599H47.7302H47.5005H47.2709H47.0413H46.8117H46.5823H46.3528H46.1235H45.8942H45.665H45.4358H45.2067H44.9777H44.7488H44.52H44.2913H44.0626H43.8341H43.6057H43.3773H43.1491H42.921H42.693H42.4651H42.2374H42.0098H41.7823H41.5549H41.3277H41.1006H40.8737H40.6469H40.4203H40.1938H39.9675H39.7414H39.5154H39.2896H39.064H38.8385H38.6132H38.3881H38.1632H37.9385H37.714H37.4897H37.2656H37.0417H36.818H36.5945H36.3712H36.1482H35.9254H35.7028H35.4804H35.2583H35.0364H34.8148H34.5934H34.3722H34.1513H33.9307H33.7103H33.4902H33.2704H33.0508H32.8315H32.6125H32.3938H32.1753H31.9572H31.7393H31.5217H31.3045H31.0875H30.8708H30.6545H30.4385H30.2227H30.0074H29.7923H29.5776H29.3632H29.1491H28.9354H28.722H28.5089H28.2963H28.0839H27.8719H27.6603H27.4491H27.2382H27.0277H26.8176H26.6078H26.3985H26.1895H25.9809H25.7727H25.5649H25.3575H25.1505H24.9439H24.7377H24.532H24.3267H24.1217H23.9173H23.7132H23.5096H23.3064H23.1036H22.9013H22.6995H22.4981H22.2971H22.0966H21.8966H21.6971H21.498H21.2994H21.1012H20.9036H20.7064H20.5097H20.3135H20.1178H19.9226H19.7279H19.5337H19.34H19.1468H18.9542H18.762H18.5704H18.3793H18.1888H17.9988H17.8093H17.6203H17.4319H17.2441H17.0568H16.8701H16.6839H16.4983H16.3132H16.1287H15.9448H15.7615H15.5788H15.3966H15.215H15.0341H14.8537H14.6739H14.4947H14.3161H14.1382H13.9608H13.7841H13.608H13.4325H13.2576H13.0834H12.9098H12.7368H12.5645H12.3929H12.2218H12.0515H11.8818H11.7127H11.5444H11.3766H11.2096H11.0432Z" fill="#FAF3F3"/>
<path d="M110 73.0793L94.9998 88.0793L111 103.079C115 103.879 115.333 100.746 115 99.0793L109.5 91.5793H116C120.4 91.9793 123.166 95.4127 124 97.0793C126.8 100.279 127.166 107.079 127 110.079C129 112.479 131.833 111.079 133 110.079C133.8 105.679 131.666 97.9127 130.5 94.5793C127.5 88.0793 121 86.0793 119.5 85.5793C118.3 85.1793 112.333 84.4127 109.5 84.0793L115 78.0793C116.2 73.2793 112.166 72.746 110 73.0793Z" fill="#FAF3F3"/>
</svg>
