<svg width="113" height="106" viewBox="0 0 113 106" fill="none" xmlns="http://www.w3.org/2000/svg">
<path fill-rule="evenodd" clip-rule="evenodd" d="M42.7517 0L41.4362 13.8121C38.2792 13.8121 34.8591 16.443 33.5436 17.7584L20.3893 7.89262L9.20805 19.7315L17.7584 32.2282C15.6537 33.2805 14.689 36.613 14.4698 38.1477L0 40.1208V57.8792L14.4698 59.1946C14.4698 61.8255 16.6622 65.9911 17.7584 67.745L9.20805 77.6107L20.3893 89.4497L33.5436 80.8993C35.1221 82.4779 39.4631 83.311 41.4362 83.5302V98H50.3878C50.132 96.0362 50 94.0335 50 92C50 83.7661 52.1633 76.0376 55.9526 69.3516C54.6584 69.5923 53.3237 69.7181 51.9597 69.7181C39.9726 69.7181 30.255 60.0006 30.255 48.0134C30.255 36.0262 39.9726 26.3087 51.9597 26.3087C63.9469 26.3087 73.6644 36.0262 73.6644 48.0134C73.6644 49.3683 73.5403 50.6942 73.3027 51.9804C79.9999 48.1739 87.7461 46 96 46C98.4709 46 100.896 46.1948 103.262 46.5699V40.1208L87.4765 38.1477C87.4765 36.043 85.7226 32.4474 84.8456 30.9128L94.0537 19.7315L81.557 7.89262L70.3758 16.443C67.2188 13.8121 63.3602 13.5928 61.8255 13.8121L59.8523 0H42.7517Z" fill="#E1E4EC"/>
<rect x="95" y="76" width="8" height="30" fill="#E9EAEE"/>
<rect x="83" y="95" width="8" height="30" transform="rotate(-90 83 95)" fill="#FAFBFF"/>
</svg>
