<svg width="110" height="110" viewBox="0 0 110 110" fill="none" xmlns="http://www.w3.org/2000/svg">
<circle cx="55" cy="55" r="55" fill="#EDF0F2"/>
<path d="M66.5556 42.1052L36.2265 62.5588C33.5893 64.3374 26.3366 62.5588 16.4467 60.5792C8.5348 58.9955 10.9523 55.9606 13.1501 54.6411C33.809 45.8439 76.5774 27.7216 82.3794 25.6103C88.1815 23.4989 89.1925 27.3697 88.9727 29.569C87.2145 41.4453 83.1706 67.969 81.0608 79.0535C78.9509 90.1381 74.028 90.7099 71.8302 89.6102C69.4127 87.8508 62.3359 82.8803 53.369 77.0742C44.4022 71.268 43.9187 68.9367 44.7978 68.4968C52.0504 61.8989 66.9512 46.7238 68.5336 44.0846C70.116 41.4454 67.8742 41.6654 66.5556 42.1052Z" fill="#0B0B0B"/>
</svg>
